<svg id="Component_9_1" data-name="Component 9 – 1" xmlns="http://www.w3.org/2000/svg" width="375.499" height="277.02" viewBox="0 0 375.499 277.02">
  <path id="Path_1" data-name="Path 1" d="M406.788,435.687l-77.731,16.384a8.667,8.667,0,0,1-10.256-6.685L305.462,382.1a8.667,8.667,0,0,1,6.685-10.256l77.731-16.384a8.667,8.667,0,0,1,10.256,6.686l13.339,63.281A8.667,8.667,0,0,1,406.788,435.687Zm-94.431-62.842a7.647,7.647,0,0,0-5.9,9.05L319.8,445.176a7.647,7.647,0,0,0,9.05,5.9l77.731-16.384a7.647,7.647,0,0,0,5.9-9.05l-13.339-63.281a7.647,7.647,0,0,0-9.05-5.9Z" transform="translate(-267.608 -265.003)" fill="#b1b1b1"/>
  <path id="Path_411" data-name="Path 411" d="M422.493,393.964l-39.23,8.269a1.391,1.391,0,0,1-1.644-.949,1.34,1.34,0,0,1,1.018-1.657l39.934-8.417c1.559.879,1.066,2.513-.078,2.754Z" transform="translate(-305.053 -282.638)" fill="#b1b1b1"/>
  <path id="Path_412" data-name="Path 412" d="M425.342,407.477l-39.23,8.269a1.391,1.391,0,0,1-1.644-.949,1.34,1.34,0,0,1,1.018-1.657l39.934-8.417c1.559.879,1.066,2.513-.078,2.754Z" transform="translate(-306.451 -289.27)" fill="#b1b1b1"/>
  <path id="Path_413" data-name="Path 413" d="M356.547,421.084l-11.973,2.524a1.508,1.508,0,0,1-1.785-1.164l-2.978-14.129a1.508,1.508,0,0,1,1.164-1.785l11.973-2.524a1.509,1.509,0,0,1,1.785,1.164l2.978,14.129a1.508,1.508,0,0,1-1.164,1.785Z" transform="translate(-284.541 -288.902)" fill="#b1b1b1"/>
  <path id="Path_414" data-name="Path 414" d="M411.056,435.192l-59.872,12.62a1.391,1.391,0,0,1-1.644-.949,1.34,1.34,0,0,1,1.018-1.657l60.577-12.768c1.559.879,1.066,2.513-.077,2.754Z" transform="translate(-289.309 -302.871)" fill="#b1b1b1"/>
  <path id="Path_415" data-name="Path 415" d="M413.9,448.709l-59.872,12.62a1.391,1.391,0,0,1-1.644-.949,1.34,1.34,0,0,1,1.018-1.657l60.577-12.768c1.559.879,1.066,2.513-.077,2.754Z" transform="translate(-290.707 -309.505)" fill="#b1b1b1"/>
  <path id="Path_416" data-name="Path 416" d="M416.752,462.218l-59.872,12.62a1.391,1.391,0,0,1-1.644-.949,1.34,1.34,0,0,1,1.018-1.657l60.577-12.768c1.559.879,1.066,2.513-.078,2.754Z" transform="translate(-292.104 -316.135)" fill="#b1b1b1"/>
  <path id="Path_417" data-name="Path 417" d="M419.6,475.734l-59.872,12.62a1.391,1.391,0,0,1-1.644-.949,1.34,1.34,0,0,1,1.018-1.657l60.577-12.768c1.559.879,1.066,2.513-.077,2.754Z" transform="translate(-293.502 -322.768)" fill="#b1b1b1"/>
  <path id="Path_418" data-name="Path 418" d="M422.448,489.243l-59.872,12.62a1.391,1.391,0,0,1-1.644-.949,1.34,1.34,0,0,1,1.018-1.657l60.577-12.768c1.559.879,1.066,2.513-.078,2.754Z" transform="translate(-294.901 -329.398)" fill="#b1b1b1"/>
  <path id="Path_2" data-name="Path 2" d="M465.24,427.395a5.367,5.367,0,0,0-.348.769l-24.511,6.082-4.264-4.411-7.5,5.565,6.79,8.543a4.074,4.074,0,0,0,4.73,1.236l26.6-10.868a5.345,5.345,0,1,0-1.5-6.916Z" transform="translate(-328.141 -299.054)" fill="#ffb8b8"/>
  <path id="Path_3" data-name="Path 3" d="M329.339,481.684a5.471,5.471,0,0,0,3.248-7.734l16.868-46.883-11.714-2.076-12.9,46.737a5.5,5.5,0,0,0,4.5,9.956Z" transform="translate(-275.905 -299.217)" fill="#ffb8b8"/>
  <path id="Path_4" data-name="Path 4" d="M358.869,423.2,347.3,418.761a2.453,2.453,0,0,1-1.258-3.495l6.067-10.758a6.812,6.812,0,1,1,12.705,4.919l-2.676,12.017a2.453,2.453,0,0,1-3.273,1.756Z" transform="translate(-287.461 -287.027)" fill="#01b1ff"/>
  <path id="Path_5" data-name="Path 5" d="M191.492,507.967h6.243l2.97-24.08h-9.214Z" transform="translate(-93.979 -237.479)" fill="#ffb8b8"/>
  <path id="Path_6" data-name="Path 6" d="M419.671,705.172h12.3a7.835,7.835,0,0,1,7.835,7.835v.255h-20.13Z" transform="translate(-323.75 -436.722)" fill="#31465b"/>
  <path id="Path_7" data-name="Path 7" d="M122.492,507.967h6.243l2.97-24.08h-9.214Z" transform="translate(-60.116 -237.479)" fill="#ffb8b8"/>
  <path id="Path_8" data-name="Path 8" d="M350.671,705.172h12.3a7.835,7.835,0,0,1,7.835,7.835v.255h-20.13Z" transform="translate(-289.887 -436.722)" fill="#31465b"/>
  <path id="Path_9" data-name="Path 9" d="M356.828,609.159h-7.9a2.292,2.292,0,0,1-2.289-2.4l3.753-80.627.236-.006,38.151-.995,7.465,80.673a2.292,2.292,0,0,1-2.1,2.5l-8.874.71a2.293,2.293,0,0,1-2.428-1.824l-11.351-57.429a.74.74,0,0,0-.748-.611h0a.741.741,0,0,0-.747.617L359.076,607.31A2.3,2.3,0,0,1,356.828,609.159Z" transform="translate(-287.907 -348.362)" fill="#31465b"/>
  <circle id="Ellipse_1" data-name="Ellipse 1" cx="12.507" cy="12.507" r="12.507" transform="translate(70.886 80.846)" fill="#ffb8b8"/>
  <path id="Path_10" data-name="Path 10" d="M369.562,471.076c-5.961,0-12.084-1.567-17.16-6.2a2.318,2.318,0,0,1-.748-1.96c.543-4.881,3.179-30.086,1.695-46.922a20.379,20.379,0,0,1,6.6-16.96,20.164,20.164,0,0,1,17.294-5.008h0c.156.028.311.057.467.087a20.259,20.259,0,0,1,16.183,21.556c-1.149,15.1-2.179,35.534-.562,47.087a2.288,2.288,0,0,1-1.23,2.361C388.421,466.977,379.2,471.076,369.562,471.076Z" transform="translate(-290.364 -283.859)" fill="#01b1ff"/>
  <path id="Path_11" data-name="Path 11" d="M416.133,425.385a2.45,2.45,0,0,1-1.074-1.737l-1.524-12.216a6.812,6.812,0,1,1,13.115-3.691l5.019,11.285a2.453,2.453,0,0,1-1.584,3.36l-11.935,3.321A2.45,2.45,0,0,1,416.133,425.385Z" transform="translate(-320.614 -288.312)" fill="#01b1ff"/>
  <path id="Path_12" data-name="Path 12" d="M374.815,357.861a8.962,8.962,0,0,1-3.461-.626c-.484-.187-.987-.34-1.471-.527a11.932,11.932,0,0,1-7.185-10.776,15.517,15.517,0,0,1,5.789-11.948,22.4,22.4,0,0,1,12.644-4.779c4.917-.374,10.455.873,13.2,4.968a4.314,4.314,0,0,1,.81,3.729,2.386,2.386,0,0,1-.672,1.033c-1.227,1.092-2.451.271-3.7.2a4.092,4.092,0,0,0-3.819,2.922,8.807,8.807,0,0,0,.137,5.088,12.711,12.711,0,0,1,.641,3.094,3.11,3.11,0,0,1-1.289,2.739,3.55,3.55,0,0,1-3.561-.375,24.727,24.727,0,0,0-3.165-2.027,2.8,2.8,0,0,0-3.4.687,3.757,3.757,0,0,0-.43,1.24c-.606,2.761-.467,2.6-1.073,5.359Z" transform="translate(-295.787 -252.177)" fill="#31465b"/>
  <path id="Path_13" data-name="Path 13" d="M641.791,272.986H562.352a8.667,8.667,0,0,1-8.657-8.657V199.657A8.667,8.667,0,0,1,562.352,191h79.439a8.667,8.667,0,0,1,8.657,8.657v64.672A8.667,8.667,0,0,1,641.791,272.986Zm-79.439-80.967a7.647,7.647,0,0,0-7.638,7.638v64.672a7.647,7.647,0,0,0,7.638,7.638h79.439a7.647,7.647,0,0,0,7.638-7.638V199.657a7.647,7.647,0,0,0-7.638-7.638Z" transform="translate(-389.526 -184.38)" fill="#b1b1b1"/>
  <path id="Path_411-2" data-name="Path 411" d="M668.96,226.556H628.868a1.391,1.391,0,0,1-1.413-1.268,1.34,1.34,0,0,1,1.338-1.412H669.6c1.344,1.181.525,2.679-.644,2.679Z" transform="translate(-425.723 -200.515)" fill="#b1b1b1"/>
  <path id="Path_412-2" data-name="Path 412" d="M668.96,240.366H628.868a1.391,1.391,0,0,1-1.413-1.268,1.34,1.34,0,0,1,1.338-1.412H669.6c1.344,1.181.525,2.679-.644,2.679Z" transform="translate(-425.723 -207.293)" fill="#b1b1b1"/>
  <path id="Path_413-2" data-name="Path 413" d="M599.968,233.991H587.732a1.508,1.508,0,0,1-1.507-1.507V218.045a1.508,1.508,0,0,1,1.507-1.507h12.236a1.509,1.509,0,0,1,1.507,1.507v14.439a1.508,1.508,0,0,1-1.507,1.507Z" transform="translate(-405.491 -196.913)" fill="#fff"/>
  <path id="Path_414-2" data-name="Path 414" d="M648.4,268.642H587.212a1.391,1.391,0,0,1-1.413-1.267,1.34,1.34,0,0,1,1.338-1.412h61.908c1.344,1.181.525,2.679-.644,2.679Z" transform="translate(-405.28 -221.17)" fill="#b1b1b1"/>
  <path id="Path_415-2" data-name="Path 415" d="M648.4,282.456H587.212a1.391,1.391,0,0,1-1.413-1.267,1.34,1.34,0,0,1,1.338-1.412h61.908c1.344,1.181.525,2.679-.644,2.679Z" transform="translate(-405.28 -227.949)" fill="#b1b1b1"/>
  <path id="Path_416-2" data-name="Path 416" d="M648.4,296.261H587.212a1.391,1.391,0,0,1-1.413-1.268,1.34,1.34,0,0,1,1.338-1.412h61.908c1.344,1.181.525,2.679-.644,2.679Z" transform="translate(-405.28 -234.724)" fill="#b1b1b1"/>
  <path id="Path_417-2" data-name="Path 417" d="M648.4,310.074H587.212a1.391,1.391,0,0,1-1.413-1.267,1.34,1.34,0,0,1,1.338-1.412h61.908c1.344,1.181.525,2.679-.644,2.679Z" transform="translate(-405.28 -241.504)" fill="#b1b1b1"/>
  <path id="Path_418-2" data-name="Path 418" d="M648.4,323.88H587.212a1.391,1.391,0,0,1-1.413-1.267,1.34,1.34,0,0,1,1.338-1.412h61.908c1.344,1.181.525,2.679-.644,2.679Z" transform="translate(-405.28 -248.279)" fill="#b1b1b1"/>
  <path id="Path_14" data-name="Path 14" d="M647.053,178a2.549,2.549,0,0,1,2.546,2.546v8.148a2.549,2.549,0,0,1-2.546,2.546H602.241a2.549,2.549,0,0,1-2.546-2.546v-8.148A2.549,2.549,0,0,1,602.241,178" transform="translate(-412.102 -178)" fill="#01b1ff"/>
  <path id="Path_15" data-name="Path 15" d="M866.791,429.986H787.352a8.667,8.667,0,0,1-8.657-8.657V356.657A8.667,8.667,0,0,1,787.352,348h79.439a8.667,8.667,0,0,1,8.657,8.657v64.672A8.667,8.667,0,0,1,866.791,429.986Zm-79.439-80.967a7.647,7.647,0,0,0-7.638,7.638v64.672a7.647,7.647,0,0,0,7.638,7.638h79.439a7.647,7.647,0,0,0,7.638-7.638V356.657a7.647,7.647,0,0,0-7.638-7.638Z" transform="translate(-499.95 -261.431)" fill="#b1b1b1"/>
  <path id="Path_411-3" data-name="Path 411" d="M893.96,383.556H853.868a1.391,1.391,0,0,1-1.413-1.268,1.34,1.34,0,0,1,1.338-1.412H894.6c1.344,1.181.525,2.679-.644,2.679Z" transform="translate(-536.147 -277.567)" fill="#fff"/>
  <path id="Path_412-3" data-name="Path 412" d="M893.96,397.366H853.868a1.391,1.391,0,0,1-1.413-1.267,1.34,1.34,0,0,1,1.338-1.412H894.6c1.344,1.181.525,2.679-.644,2.679Z" transform="translate(-536.147 -284.344)" fill="#fff"/>
  <path id="Path_413-3" data-name="Path 413" d="M824.968,390.991H812.732a1.508,1.508,0,0,1-1.507-1.507V375.045a1.508,1.508,0,0,1,1.507-1.507h12.236a1.509,1.509,0,0,1,1.507,1.507v14.439a1.508,1.508,0,0,1-1.507,1.507Z" transform="translate(-515.914 -273.965)" fill="#b1b1b1"/>
  <path id="Path_413-4" data-name="Path 413" d="M919.968,473.88H907.732a1.508,1.508,0,0,1-1.507-1.507v-8.328a1.508,1.508,0,0,1,1.507-1.507h12.236a1.509,1.509,0,0,1,1.507,1.507v8.328a1.508,1.508,0,0,1-1.507,1.507Z" transform="translate(-562.537 -317.644)" fill="#fff"/>
  <path id="Path_414-3" data-name="Path 414" d="M873.4,425.642H812.212a1.391,1.391,0,0,1-1.413-1.267,1.34,1.34,0,0,1,1.338-1.412h61.908c1.344,1.181.525,2.679-.644,2.679Z" transform="translate(-515.703 -298.221)" fill="#b1b1b1"/>
  <path id="Path_415-3" data-name="Path 415" d="M873.4,439.456H812.212a1.391,1.391,0,0,1-1.413-1.268,1.34,1.34,0,0,1,1.338-1.411h61.908c1.344,1.181.525,2.679-.644,2.679Z" transform="translate(-515.703 -305.001)" fill="#b1b1b1"/>
  <path id="Path_416-3" data-name="Path 416" d="M873.4,453.261H812.212a1.391,1.391,0,0,1-1.413-1.268,1.34,1.34,0,0,1,1.338-1.412h61.908c1.344,1.181.525,2.679-.644,2.679Z" transform="translate(-515.703 -311.776)" fill="#b1b1b1"/>
  <path id="Path_417-3" data-name="Path 417" d="M841.318,467.074H812.212a1.391,1.391,0,0,1-1.413-1.267,1.34,1.34,0,0,1,1.338-1.412h29.826c1.344,1.181.525,2.679-.644,2.679Z" transform="translate(-515.703 -318.555)" fill="#b1b1b1"/>
  <path id="Path_418-3" data-name="Path 418" d="M841.318,480.88H812.212a1.391,1.391,0,0,1-1.414-1.267,1.34,1.34,0,0,1,1.338-1.412h29.826c1.344,1.181.525,2.679-.644,2.679Z" transform="translate(-515.703 -325.331)" fill="#b1b1b1"/>
  <path id="Path_16" data-name="Path 16" d="M872.053,348.24H827.241a2.549,2.549,0,0,1-2.546-2.546v-8.148A2.549,2.549,0,0,1,827.241,335h44.812a2.549,2.549,0,0,1,2.546,2.546v8.148a2.549,2.549,0,0,1-2.546,2.546Z" transform="translate(-522.526 -255.051)" fill="#01b1ff"/>
  <path id="Path_17" data-name="Path 17" d="M425.83,721.018H231.814a.509.509,0,1,1,0-1.018H425.83a.509.509,0,1,1,0,1.018Z" transform="translate(-231.305 -443.999)" fill="#b1b1b1"/>
  <circle id="Ellipse_2" data-name="Ellipse 2" cx="3.293" cy="3.293" r="3.293" transform="translate(45.982 8.584)" fill="#f2f2f2"/>
  <circle id="Ellipse_3" data-name="Ellipse 3" cx="3.293" cy="3.293" r="3.293" transform="translate(45.982 21.709)" fill="#f2f2f2"/>
  <circle id="Ellipse_4" data-name="Ellipse 4" cx="3.293" cy="3.293" r="3.293" transform="translate(45.982 34.833)" fill="#f2f2f2"/>
  <circle id="Ellipse_5" data-name="Ellipse 5" cx="3.293" cy="3.293" r="3.293" transform="translate(45.982 47.958)" fill="#f2f2f2"/>
  <circle id="Ellipse_6" data-name="Ellipse 6" cx="3.293" cy="3.293" r="3.293" transform="translate(59.73 8.584)" fill="#f2f2f2"/>
  <circle id="Ellipse_7" data-name="Ellipse 7" cx="3.293" cy="3.293" r="3.293" transform="translate(59.73 21.709)" fill="#f2f2f2"/>
  <circle id="Ellipse_8" data-name="Ellipse 8" cx="3.293" cy="3.293" r="3.293" transform="translate(59.73 34.833)" fill="#f2f2f2"/>
  <circle id="Ellipse_9" data-name="Ellipse 9" cx="3.293" cy="3.293" r="3.293" transform="translate(59.73 47.958)" fill="#f2f2f2"/>
  <circle id="Ellipse_10" data-name="Ellipse 10" cx="3.293" cy="3.293" r="3.293" transform="translate(73.48 8.584)" fill="#f2f2f2"/>
  <circle id="Ellipse_11" data-name="Ellipse 11" cx="3.293" cy="3.293" r="3.293" transform="translate(73.48 21.709)" fill="#f2f2f2"/>
  <circle id="Ellipse_12" data-name="Ellipse 12" cx="3.293" cy="3.293" r="3.293" transform="translate(73.48 34.833)" fill="#f2f2f2"/>
  <circle id="Ellipse_13" data-name="Ellipse 13" cx="3.293" cy="3.293" r="3.293" transform="translate(73.48 47.958)" fill="#f2f2f2"/>
  <circle id="Ellipse_14" data-name="Ellipse 14" cx="3.293" cy="3.293" r="3.293" transform="translate(87.228 8.584)" fill="#f2f2f2"/>
  <circle id="Ellipse_15" data-name="Ellipse 15" cx="3.293" cy="3.293" r="3.293" transform="translate(87.228 21.709)" fill="#f2f2f2"/>
  <circle id="Ellipse_16" data-name="Ellipse 16" cx="3.293" cy="3.293" r="3.293" transform="translate(87.228 34.833)" fill="#f2f2f2"/>
  <circle id="Ellipse_17" data-name="Ellipse 17" cx="3.293" cy="3.293" r="3.293" transform="translate(87.228 47.958)" fill="#f2f2f2"/>
  <circle id="Ellipse_18" data-name="Ellipse 18" cx="3.293" cy="3.293" r="3.293" transform="translate(100.978 8.584)" fill="#f2f2f2"/>
  <circle id="Ellipse_19" data-name="Ellipse 19" cx="3.293" cy="3.293" r="3.293" transform="translate(100.978 21.709)" fill="#f2f2f2"/>
  <circle id="Ellipse_20" data-name="Ellipse 20" cx="3.293" cy="3.293" r="3.293" transform="translate(100.978 34.833)" fill="#f2f2f2"/>
  <circle id="Ellipse_21" data-name="Ellipse 21" cx="3.293" cy="3.293" r="3.293" transform="translate(100.978 47.958)" fill="#f2f2f2"/>
  <circle id="Ellipse_22" data-name="Ellipse 22" cx="3.293" cy="3.293" r="3.293" transform="translate(114.726 8.584)" fill="#f2f2f2"/>
  <circle id="Ellipse_23" data-name="Ellipse 23" cx="3.293" cy="3.293" r="3.293" transform="translate(114.726 21.709)" fill="#f2f2f2"/>
  <circle id="Ellipse_24" data-name="Ellipse 24" cx="3.293" cy="3.293" r="3.293" transform="translate(114.726 34.833)" fill="#f2f2f2"/>
  <circle id="Ellipse_25" data-name="Ellipse 25" cx="3.293" cy="3.293" r="3.293" transform="translate(114.726 47.958)" fill="#f2f2f2"/>
  <circle id="Ellipse_26" data-name="Ellipse 26" cx="3.293" cy="3.293" r="3.293" transform="translate(303.14 190.887)" fill="#f2f2f2"/>
  <circle id="Ellipse_27" data-name="Ellipse 27" cx="3.293" cy="3.293" r="3.293" transform="translate(303.14 204.012)" fill="#f2f2f2"/>
  <circle id="Ellipse_28" data-name="Ellipse 28" cx="3.293" cy="3.293" r="3.293" transform="translate(303.14 217.136)" fill="#f2f2f2"/>
  <circle id="Ellipse_29" data-name="Ellipse 29" cx="3.293" cy="3.293" r="3.293" transform="translate(316.89 190.887)" fill="#f2f2f2"/>
  <circle id="Ellipse_30" data-name="Ellipse 30" cx="3.293" cy="3.293" r="3.293" transform="translate(316.89 204.012)" fill="#f2f2f2"/>
  <circle id="Ellipse_31" data-name="Ellipse 31" cx="3.293" cy="3.293" r="3.293" transform="translate(316.89 217.136)" fill="#f2f2f2"/>
  <circle id="Ellipse_32" data-name="Ellipse 32" cx="3.293" cy="3.293" r="3.293" transform="translate(330.64 190.887)" fill="#f2f2f2"/>
  <circle id="Ellipse_33" data-name="Ellipse 33" cx="3.293" cy="3.293" r="3.293" transform="translate(330.64 204.012)" fill="#f2f2f2"/>
  <circle id="Ellipse_34" data-name="Ellipse 34" cx="3.293" cy="3.293" r="3.293" transform="translate(330.64 217.136)" fill="#f2f2f2"/>
  <circle id="Ellipse_35" data-name="Ellipse 35" cx="3.293" cy="3.293" r="3.293" transform="translate(344.388 190.887)" fill="#f2f2f2"/>
  <circle id="Ellipse_36" data-name="Ellipse 36" cx="3.293" cy="3.293" r="3.293" transform="translate(344.388 204.012)" fill="#f2f2f2"/>
  <circle id="Ellipse_37" data-name="Ellipse 37" cx="3.293" cy="3.293" r="3.293" transform="translate(344.388 217.136)" fill="#f2f2f2"/>
</svg>
